<?xml version="1.0" standalone="no"?>
<!DOCTYPE svg PUBLIC "-//W3C//DTD SVG 20010904//EN"
 "http://www.w3.org/TR/2001/REC-SVG-20010904/DTD/svg10.dtd">
<svg version="1.0" xmlns="http://www.w3.org/2000/svg"
 width="1500.000000pt" height="1500.000000pt" viewBox="0 0 1500.000000 1500.000000"
 preserveAspectRatio="xMidYMid meet">
<metadata>
Created by potrace 1.14, written by Peter Selinger 2001-2017
</metadata>
<g transform="translate(0.000000,1500.000000) scale(0.100000,-0.100000)"
fill="#000000" stroke="none">
<path d="M3406 13365 c-99 -41 -184 -117 -219 -195 -28 -61 -30 -161 -6 -280
11 -52 22 -106 24 -120 2 -14 13 -70 24 -125 11 -55 22 -111 24 -125 5 -27 33
-180 41 -220 16 -84 26 -139 31 -170 3 -19 14 -80 25 -135 10 -55 21 -113 24
-130 3 -16 20 -104 37 -195 17 -91 33 -186 36 -212 5 -43 3 -49 -18 -57 -13
-4 -28 -7 -34 -5 -5 2 -26 5 -45 8 -19 3 -66 12 -105 20 -38 8 -88 17 -110 20
-22 4 -76 13 -120 22 -44 8 -96 17 -115 20 -19 3 -42 7 -52 10 -9 3 -42 9 -75
15 -127 22 -169 29 -193 34 -14 3 -77 14 -140 25 -63 12 -126 23 -140 26 -58
11 -257 47 -275 49 -11 2 -60 10 -110 20 -49 9 -101 19 -115 21 -14 2 -36 7
-50 9 -14 3 -42 8 -64 11 -49 7 -73 12 -94 18 -9 3 -35 7 -57 11 -39 5 -126
20 -175 30 -227 45 -334 6 -390 -142 -9 -26 -30 -113 -44 -193 -15 -80 -31
-161 -36 -180 -13 -48 -40 -63 -88 -51 -74 20 -218 44 -280 47 -153 7 -251
-80 -277 -246 -3 -19 -7 -46 -10 -60 -2 -14 -7 -54 -11 -90 -3 -36 -7 -67 -9
-70 -2 -3 -6 -34 -10 -70 -3 -36 -8 -72 -10 -80 -2 -8 -7 -37 -10 -65 -3 -27
-7 -59 -9 -70 -2 -11 -7 -45 -10 -76 -4 -31 -8 -65 -10 -75 -2 -11 -7 -50 -12
-89 -4 -38 -8 -72 -9 -75 -1 -3 -5 -30 -9 -60 -4 -30 -14 -100 -22 -155 -8
-55 -16 -116 -18 -135 -8 -56 -24 -179 -36 -258 -5 -40 -13 -94 -16 -120 -3
-26 -11 -87 -19 -137 -25 -168 -5 -258 71 -325 51 -44 43 -41 539 -229 105
-40 199 -76 210 -81 11 -5 81 -32 155 -60 74 -29 144 -56 155 -60 11 -5 321
-125 690 -266 369 -141 810 -311 980 -376 171 -66 344 -132 385 -147 41 -16
183 -70 315 -121 528 -203 542 -209 623 -284 63 -58 97 -112 128 -202 24 -69
27 -94 27 -199 -1 -190 -52 -322 -190 -490 -37 -45 -172 -216 -224 -285 -78
-101 -272 -355 -379 -495 -42 -55 -218 -284 -390 -510 -306 -399 -473 -617
-508 -662 -9 -12 -26 -34 -37 -49 -11 -15 -67 -89 -125 -164 -58 -76 -116
-152 -130 -170 -14 -18 -81 -106 -150 -196 -69 -89 -163 -213 -210 -274 -76
-100 -134 -176 -245 -320 -19 -25 -78 -101 -130 -170 -53 -69 -119 -156 -148
-193 -28 -38 -73 -97 -100 -130 -26 -34 -128 -168 -227 -297 -98 -129 -183
-239 -188 -245 -33 -39 -264 -347 -291 -388 -84 -128 -70 -241 38 -291 l46
-21 3050 -2 3050 -3 67 24 c143 50 113 18 528 566 78 102 146 192 153 200 12
15 59 76 442 580 98 129 236 309 305 400 69 91 177 233 240 315 63 83 135 177
160 210 25 33 97 128 160 210 63 83 145 191 183 240 37 50 77 101 87 115 11
14 112 147 225 295 256 335 232 303 334 438 123 163 358 472 518 682 354 465
535 708 546 733 6 15 15 29 18 32 4 3 49 86 99 185 51 99 103 191 116 205 l23
24 148 -24 c82 -13 153 -25 158 -26 41 -9 82 -16 160 -29 50 -9 110 -20 135
-25 25 -5 61 -12 80 -14 19 -3 46 -8 60 -11 13 -2 40 -7 60 -10 20 -3 45 -7
57 -9 11 -3 36 -7 54 -10 19 -3 44 -8 55 -10 12 -2 37 -7 55 -10 48 -7 319
-55 349 -61 14 -3 52 -10 85 -15 169 -30 177 -31 245 -45 14 -2 41 -7 60 -10
19 -3 46 -7 60 -10 14 -3 39 -7 55 -10 17 -3 41 -7 55 -10 38 -8 130 -24 174
-31 98 -15 350 -86 433 -121 302 -131 526 -395 590 -698 15 -71 18 -183 8
-335 -12 -198 -15 -241 -20 -355 -3 -66 -8 -151 -10 -190 -2 -38 -7 -110 -10
-160 -3 -49 -7 -130 -10 -180 -3 -49 -7 -130 -10 -180 -3 -49 -7 -133 -10
-185 -3 -52 -7 -129 -10 -170 -2 -41 -6 -124 -10 -185 -3 -60 -8 -137 -10
-170 -2 -33 -7 -118 -10 -190 -3 -71 -8 -153 -10 -181 -9 -109 -18 -323 -18
-395 1 -246 182 -428 429 -431 151 -2 292 90 366 237 23 46 30 67 43 134 4 24
13 148 20 306 5 95 12 217 20 325 2 36 7 119 10 185 9 171 14 259 19 350 3 44
8 127 11 185 4 58 8 134 10 170 2 36 7 117 10 180 3 63 8 144 10 180 3 36 7
124 10 195 4 72 8 150 10 175 26 319 25 660 -4 807 -74 380 -239 693 -505 958
-291 290 -656 474 -1091 549 -49 9 -101 18 -115 21 -33 7 -317 56 -355 61 -16
3 -50 9 -75 14 -25 5 -72 14 -105 19 -64 11 -105 18 -145 26 -118 21 -407 73
-455 81 -16 3 -124 23 -240 44 -115 22 -226 42 -245 45 -19 3 -91 17 -160 30
-69 13 -138 26 -155 29 -195 32 -210 36 -240 69 -24 25 -39 63 -73 182 -24 83
-56 189 -72 237 -31 90 -36 123 -21 132 17 11 73 10 351 -9 36 -3 106 -7 155
-10 50 -3 126 -7 170 -10 96 -6 269 -16 345 -20 30 -1 100 -6 155 -9 55 -4
136 -8 180 -11 44 -2 118 -6 165 -9 47 -3 132 -8 190 -11 58 -3 132 -8 165
-10 33 -2 114 -6 180 -9 66 -4 156 -8 200 -11 138 -9 247 -15 340 -20 50 -3
126 -7 170 -10 44 -3 123 -7 175 -10 132 -7 305 -16 365 -21 28 -2 124 -6 215
-9 139 -5 172 -3 207 11 49 20 95 62 128 118 18 33 73 244 100 384 2 13 6 31
9 40 3 9 7 28 10 42 2 14 10 46 16 73 53 206 -98 361 -411 422 -68 13 -140 26
-159 29 -19 3 -46 8 -60 11 -14 3 -65 12 -115 20 -49 9 -110 19 -135 24 -25 5
-72 14 -105 20 -33 6 -109 20 -170 31 -60 11 -121 21 -135 24 -31 5 -245 44
-280 51 -14 3 -50 9 -80 15 -30 5 -68 12 -85 15 -34 6 -150 27 -310 55 -60 11
-121 22 -135 25 -14 3 -38 7 -55 10 -16 3 -52 10 -80 15 -27 5 -66 12 -85 16
-55 9 -123 21 -280 49 -178 32 -179 32 -210 39 -14 3 -41 8 -60 11 -39 5 -83
13 -120 20 -14 3 -38 8 -55 11 -16 3 -91 16 -165 29 -74 14 -148 27 -165 30
-229 41 -768 138 -825 149 -41 8 -95 18 -120 22 -25 4 -47 8 -50 9 -3 1 -37 7
-77 14 -39 7 -77 14 -85 15 -40 8 -257 47 -332 60 -16 3 -52 10 -80 15 -28 6
-67 13 -86 15 -19 3 -46 8 -60 11 -29 6 -66 13 -112 20 -28 5 -79 14 -163 30
-68 13 -154 28 -176 31 -15 2 -60 10 -100 18 -41 8 -87 17 -104 20 -16 2 -55
9 -85 15 -30 6 -68 13 -85 16 -16 2 -82 14 -145 26 -63 12 -128 23 -145 25
-16 2 -50 8 -75 14 -25 5 -74 15 -110 21 -80 14 -78 13 -220 39 -63 12 -137
25 -165 30 -62 11 -439 78 -480 86 -16 3 -66 12 -110 20 -121 23 -296 54 -334
60 -18 3 -41 7 -50 9 -23 4 -181 33 -216 40 -246 44 -314 56 -335 60 -14 3
-45 8 -70 12 -95 12 -122 31 -302 208 -95 94 -213 206 -262 250 -103 92 -305
274 -387 349 -30 28 -95 87 -144 131 -49 44 -93 85 -99 90 -6 6 -54 48 -106
95 -52 47 -99 90 -105 96 -5 6 -59 56 -120 110 -60 54 -112 101 -115 104 -3 3
-52 48 -110 100 -58 52 -123 110 -144 130 -21 19 -44 40 -50 45 -6 6 -36 33
-66 60 -31 28 -95 86 -144 130 -49 44 -103 94 -121 110 -44 41 -103 94 -215
195 -52 47 -101 92 -110 100 -201 188 -279 240 -353 240 -23 -1 -69 -12 -101
-25z"/>
</g>
</svg>
