<?xml version="1.0" encoding="UTF-8"?>
<svg id="Ebene_1" data-name="Ebene 1" xmlns="http://www.w3.org/2000/svg" viewBox="0 0 981.58 771.11">
  <defs>
    <style>
      .cls-1 {
        fill: #204988;
      }
    </style>
  </defs>
  <path class="cls-1" d="m952.92,262.22c5.16.94,10.2,3.66,14.77,6.4,7.76,4.66,10.16,11.91,8.15,20.69-2.23,9.73-4.4,19.47-6.63,29.19-2.39,10.43-8.9,15.34-19.6,14.74-38.25-2.13-76.49-4.29-114.74-6.43-38.61-2.24-77.21-4.43-115.81-6.81-5.3-.33-6.3.4-4.22,5.86,3.41,8.94,5.38,18.42,8.41,27.52.72,2.16,2.98,5.01,4.93,5.37,49.25,9.08,98.5,18.19,147.86,26.61,55.78,9.51,97.9,50.55,104.68,104.72,1.87,14.95.21,30.43-.58,45.63-2.53,48.41-5.42,96.79-8.17,145.19-.94,16.45-13.61,28.5-29,27.57-16.03-.97-27.31-14.14-26.38-30.69,3.24-57.64,6.47-115.29,9.65-172.94,1.32-23.85-14.97-48.85-40.67-59.09-12.62-5.03-26.5-7.2-39.99-9.67-40.51-7.41-81.12-14.24-121.64-21.57-4.21-.76-5.28.57-7.06,4.01-5.8,11.2-11.11,22.93-18.66,32.9-78.53,103.6-157.48,206.87-236.2,310.32-4.44,5.83-13.43,9.34-21.01,9.35-125.72.02-245.81.02-371.8,0-6.72.02-13.44-.09-20.15-.34-10.82-.4-15.52-8.75-10.05-18.1,2.37-4.05,5.35-7.77,8.21-11.51,70.5-92.14,141.02-184.26,211.55-276.38,4.52-5.91,9.42-11.54,13.78-17.56,7.13-9.85,9.69-21.03,8.18-33.03-1.75-13.82-9.99-22.68-22.61-27.54-81.42-31.35-162.88-62.63-244.34-93.89-11.79-4.52-15.08-10.65-13.33-23.15,5.27-37.56,10.32-75.16,15.34-112.75,1.65-12.36,9.81-18.51,22.1-16.23,4.46.83,8.97,1.48,13.35,2.62,4.51,1.18,6.87.36,7.39-4.84.56-5.57,1.96-11.06,3.02-16.58,2.7-14.09,9.17-18.56,23.46-16.09,10.19,1.76,20.37,3.65,30.55,5.48,35,6.31,70.02,12.55,104.99,19.04,5.13.95,5.64-.47,4.77-5.06-6.19-32.63-11.83-65.36-18.38-97.92-2.81-13.99,7.52-22.81,17.92-26.49,6.61-2.34,12.17,1.03,17.2,5.59,50.01,45.4,100.15,90.67,150.14,136.1,7.49,6.8,14.33,14.3,21.7,21.24,1.41,1.33,3.81,1.85,5.85,2.22"/>
</svg>